# File created by Blade
# Date/Time:  Thu Jan 22 19:18:24 2015
#---------------------------------------------------------
:version 1.10
:name HOM
:units
  mass 1.0
  length 1.000000
  angle deg
:documentation
     Acclaim Skeleton File
:root
   axis xyz
   order TX TY TZ RX RY RZ
   position 0.000000 0.000000 0.000000
   orientation 0 0 0
:bonedata
   begin
      id 1
      name RightUpLeg_dum
      direction -1.000000 0.000000 0.000000
      length 4.478084
      axis 0.0 0.0 0.0 xyz
   end
   begin
      id 2
      name LeftUpLeg_dum
      direction 1.000000 0.000000 0.000000
      length 4.478084
      axis 0.0 0.0 0.0 xyz
   end
   begin
      id 3
      name Spine_dum
      direction 0.000000 1.000000 0.000000
      length 6.068208
      axis 0.0 0.0 0.0 xyz
   end
   begin
      id 4
      name RightUpLeg
      direction 0.000000 -1.000000 0.000000
      length 16.405774
      axis 0.0 0.0 0.0 xyz
      dof rx ry rz
   end
   begin
      id 5
      name RightLeg
      direction 0.000000 -1.000000 0.000000
      length 14.644143
      axis 0.0 0.0 0.0 xyz
      dof rx ry rz
   end
   begin
      id 6
      name RightFoot
      direction 0.000000 -0.258819 0.965926
      length 5.806150
      axis 15.0 0.0 0.0 xyz
      dof rx ry rz
   end
   begin
      id 7
      name RightToeBase
      direction 0.000000 0.000000 1.000000
      length 2.952750
      axis 0.0 0.0 0.0 xyz
      dof rx ry rz
   end
   begin
      id 8
      name LeftUpLeg
      direction 0.000000 -1.000000 0.000000
      length 16.405774
      axis 0.0 0.0 0.0 xyz
      dof rx ry rz
   end
   begin
      id 9
      name LeftLeg
      direction 0.000000 -1.000000 0.000000
      length 14.644143
      axis 0.0 0.0 0.0 xyz
      dof rx ry rz
   end
   begin
      id 10
      name LeftFoot
      direction 0.000000 -0.258819 0.965926
      length 5.806150
      axis 15.0 0.0 0.0 xyz
      dof rx ry rz
   end
   begin
      id 11
      name LeftToeBase
      direction 0.000000 0.000000 1.000000
      length 2.952750
      axis 0.0 0.0 0.0 xyz
      dof rx ry rz
   end
   begin
      id 12
      name Spine
      direction 0.000000 1.000000 0.000000
      length 0.000000
      axis 0.0 0.0 0.0 xyz
      dof rx ry rz
   end
   begin
      id 13
      name Spine_dum1
      direction 0.000000 1.000000 0.000000
      length 10.013923
      axis 0.0 0.0 0.0 xyz
   end
   begin
      id 14
      name Spine_dum2
      direction 0.000000 1.000000 0.000000
      length 10.013923
      axis 0.0 0.0 0.0 xyz
   end
   begin
      id 15
      name Spine_dum3
      direction 0.000000 1.000000 0.000000
      length 15.777476
      axis 0.0 0.0 0.0 xyz
   end
   begin
      id 16
      name RightShoulder
      direction -1.000000 0.000000 0.000000
      length 7.190220
      axis 0.0 0.0 90.0 xyz
      dof rx ry rz
   end
   begin
      id 17
      name RightArm
      direction -1.000000 0.000000 0.000000
      length 10.177469
      axis 0.0 0.0 90.0 xyz
      dof rx ry rz
   end
   begin
      id 18
      name RightForeArm
      direction -1.000000 0.000000 0.000000
      length 8.392114
      axis 0.0 0.0 90.0 xyz
      dof ry rz rx
   end
   begin
      id 19
      name RightHand
      direction -1.000000 0.000000 0.000000
      length 0.000000
      axis 0.0 0.0 90.0 xyz
      dof rx ry rz
   end
   begin
      id 20
      name RightHand_dum1
      direction -1.000000 0.000000 0.000000
      length 3.937000
      axis 0.0 0.0 90.0 xyz
   end
   begin
      id 21
      name RightHand_dum2
      direction 0.000000 0.000000 0.000000
      length 0.000000
      axis 0.0 0.0 90.0 xyz
   end
   begin
      id 22
      name RightHandThumb1
      direction 0.000000 0.000000 1.000000
      length 3.937000
      axis 0.0 0.0 90.0 xyz
      dof rx rz ry
   end
   begin
      id 23
      name LeftShoulder
      direction 1.000000 0.000000 0.000000
      length 7.190220
      axis 0.0 0.0 -90.0 xyz
      dof rx ry rz
   end
   begin
      id 24
      name LeftArm
      direction 1.000000 0.000000 0.000000
      length 10.177469
      axis 0.0 0.0 -90.0 xyz
      dof rx ry rz
   end
   begin
      id 25
      name LeftForeArm
      direction 1.000000 0.000000 0.000000
      length 8.392114
      axis 0.0 0.0 -90.0 xyz
      dof ry rz rx
   end
   begin
      id 26
      name LeftHand
      direction 1.000000 0.000000 0.000000
      length 0.000000
      axis 0.0 0.0 -90.0 xyz
      dof rx ry rz
   end
   begin
      id 27
      name LeftHand_dum1
      direction 1.000000 0.000000 0.000000
      length 3.937000
      axis 0.0 0.0 -90.0 xyz
   end
   begin
      id 28
      name LeftHand_dum2
      direction 0.000000 0.000000 0.000000
      length 0.000000
      axis 0.0 0.0 -90.0 xyz
   end
   begin
      id 29
      name LeftHandThumb1
      direction 0.000000 0.000000 1.000000
      length 3.937000
      axis 0.0 0.0 -90.0 xyz
      dof rx rz ry
   end
   begin
      id 30
      name Head
      direction 0.000000 1.000000 0.000000
      length 4.527550
      axis 0.0 0.0 0.0 xyz
      dof rx ry rz
   end
:hierarchy
   begin
      root RightUpLeg_dum LeftUpLeg_dum Spine_dum
      RightUpLeg_dum RightUpLeg
      LeftUpLeg_dum LeftUpLeg
      Spine_dum Spine
      RightUpLeg RightLeg
      RightLeg RightFoot
      RightFoot RightToeBase
      LeftUpLeg LeftLeg
      LeftLeg LeftFoot
      LeftFoot LeftToeBase
      Spine Spine_dum1 Spine_dum2 Spine_dum3
      Spine_dum1 RightShoulder
      Spine_dum2 LeftShoulder
      Spine_dum3 Head
      RightShoulder RightArm
      RightArm RightForeArm
      RightForeArm RightHand
      RightHand RightHand_dum1 RightHand_dum2
      RightHand_dum2 RightHandThumb1
      LeftShoulder LeftArm
      LeftArm LeftForeArm
      LeftForeArm LeftHand
      LeftHand LeftHand_dum1 LeftHand_dum2
      LeftHand_dum2 LeftHandThumb1
   end

# File created by Blade
# Date/Time:  Thu Jan 22 19:18:16 2015
# Frame Rate: 120.000 fps
#------------------------------------------------------
:FULLY-SPECIFIED
:DEGREES
365
root 2.743579 32.130351 -6.986966 62.919099 -26.284068 11.327807
RightUpLeg -76.883258 -15.103636 -24.887574
RightLeg 2.585710 -0.000000 -0.000000
RightFoot 1.138781 -1.466080 13.138524
RightToeBase 6.382970 -0.000000 -0.000000
LeftUpLeg -63.738512 12.558830 -14.696671
LeftLeg -2.218771 -0.000000 0.000000
LeftFoot -0.654072 7.482595 -27.910221
LeftToeBase 7.643265 -0.000000 -0.000000
Spine 21.699409 -9.334920 19.551992
RightShoulder -3.415390 7.646035 -24.503107
RightArm 48.027981 10.736325 47.174502
RightForeArm -18.227720 0.000000 40.674648
RightHand 13.949609 -0.000000 -3.491551
RightHandThumb1 -24.326973 -0.000000 -32.862282
LeftShoulder -9.145589 -18.234319 41.795199
LeftArm 70.251097 -0.003025 -37.176404
LeftForeArm 40.806416 -0.000000 55.123003
LeftHand 3.096799 -0.000000 3.635510
LeftHandThumb1 -26.253704 0.000000 33.147579
Head -41.676003 -4.695426 10.430438
366
root 2.749082 32.124593 -6.991382 63.466709 -26.566922 11.380285
RightUpLeg -77.518574 -15.287054 -25.008210
RightLeg 2.608371 -0.000000 -0.000000
RightFoot 1.178038 -1.477205 13.134712
RightToeBase 6.368694 -0.000000 -0.000000
LeftUpLeg -64.283015 12.491211 -15.084713
LeftLeg -2.238488 -0.000000 0.000000
LeftFoot -0.717276 7.503550 -27.859757
LeftToeBase 7.665021 -0.000000 -0.000000
Spine 21.926177 -9.356988 19.462013
RightShoulder -3.347013 8.018204 -24.553047
RightArm 48.216398 10.494790 47.020833
RightForeArm -18.032634 0.000000 40.741455
RightHand 14.032253 -0.000000 -3.173310
RightHandThumb1 -24.326973 -0.000000 -32.862282
LeftShoulder -9.010517 -18.583759 41.898353
LeftArm 70.472512 0.253408 -37.431173
LeftForeArm 40.836581 -0.000000 54.466634
LeftHand 3.178624 -0.000000 3.693519
LeftHandThumb1 -26.253704 0.000000 33.147579
Head -42.079593 -4.472284 10.445487
367
root 2.758721 32.118831 -6.996726 63.963360 -26.833866 11.407116
RightUpLeg -78.117043 -15.444434 -25.087713
RightLeg 2.655936 -0.000000 -0.000000
RightFoot 1.237351 -1.459468 13.072015
RightToeBase 6.327923 -0.000000 -0.000000
LeftUpLeg -64.770113 12.430512 -15.431728
LeftLeg -2.257449 -0.000000 0.000000
LeftFoot -0.836935 7.544843 -27.820827
LeftToeBase 7.796023 -0.000000 -0.000000
Spine 22.204341 -9.263509 19.424873
RightShoulder -3.357508 8.014061 -24.556642
RightArm 48.648331 10.466866 46.767881
RightForeArm -18.223238 -0.000000 40.754336
RightHand 13.842639 -0.000000 -3.837196
RightHandThumb1 -24.326973 -0.000000 -32.862282
LeftShoulder -8.738998 -18.922573 41.983152
LeftArm 70.717179 0.365595 -37.606882
LeftForeArm 40.859659 -0.000000 53.825439
LeftHand 3.239400 -0.000000 3.598836
LeftHandThumb1 -26.253704 0.000000 33.147579
Head -42.445718 -4.404919 10.520276
368
root 2.762760 32.111621 -7.005681 64.464607 -27.205659 11.400895
RightUpLeg -78.766561 -15.518573 -25.280350
RightLeg 2.749951 -0.000000 -0.000000
RightFoot 1.305587 -1.491772 12.996385
RightToeBase 6.292846 -0.000000 -0.000000
LeftUpLeg -65.244484 12.457669 -15.842798
LeftLeg -2.287239 -0.000000 0.000000
LeftFoot -0.953840 7.542368 -27.836300
LeftToeBase 7.805751 -0.000000 -0.000000
Spine 22.515312 -9.165719 19.202059
RightShoulder -3.263051 8.121055 -24.470897
RightArm 49.018570 10.470543 46.562939
RightForeArm -18.199273 -0.000000 40.777881
RightHand 13.940334 0.000000 -3.961311
RightHandThumb1 -24.326973 -0.000000 -32.862282
LeftShoulder -8.527238 -19.290034 42.150912
LeftArm 70.846420 0.568756 -37.781133
LeftForeArm 40.778852 0.000000 53.222576
LeftHand 3.459408 -0.000000 3.753101
LeftHandThumb1 -26.253704 0.000000 33.147579
Head -42.788879 -4.243264 10.675177
369
root 2.770593 32.103286 -7.006483 64.983429 -27.524954 11.417111
RightUpLeg -79.403055 -15.667032 -25.372848
RightLeg 2.808127 -0.000000 -0.000000
RightFoot 1.363143 -1.468777 12.864335
RightToeBase 6.098470 -0.000000 -0.000000
LeftUpLeg -65.708107 12.407923 -16.182232
LeftLeg -2.337795 -0.000000 0.000000
LeftFoot -1.090690 7.566380 -27.862661
LeftToeBase 7.888019 -0.000000 -0.000000
Spine 22.762611 -9.101576 19.097645
RightShoulder -3.205741 8.545888 -24.528474
RightArm 49.110648 10.247784 46.400988
RightForeArm -17.947712 -0.000000 40.860709
RightHand 13.946997 -0.000000 -3.770741
RightHandThumb1 -24.326973 -0.000000 -32.862282
LeftShoulder -8.340914 -19.812361 42.273449
LeftArm 70.894128 0.901436 -37.917457
LeftForeArm 41.091316 -0.000000 52.684344
LeftHand 3.429449 -0.000000 3.812561
LeftHandThumb1 -26.253704 0.000000 33.147579
Head -43.163883 -4.093458 10.703372
370
root 2.781622 32.095802 -7.006788 65.501202 -27.835768 11.455513
RightUpLeg -80.032197 -15.845330 -25.470188
RightLeg 2.844806 -0.000000 -0.000000
RightFoot 1.364387 -1.440457 12.995107
RightToeBase 6.344905 -0.000000 -0.000000
LeftUpLeg -66.170039 12.311278 -16.494341
LeftLeg -2.386899 -0.000000 0.000000
LeftFoot -1.224925 7.625703 -27.864522
LeftToeBase 7.890066 -0.000000 -0.000000
Spine 22.979143 -9.111555 18.988823
RightShoulder -3.121703 8.795016 -24.591243
RightArm 49.365477 10.153315 46.286932
RightForeArm -17.888758 -0.000000 40.950682
RightHand 13.948979 -0.000000 -3.676613
RightHandThumb1 -24.326973 -0.000000 -32.862282
LeftShoulder -8.173584 -20.180622 42.399588
LeftArm 70.927841 1.140418 -37.979192
LeftForeArm 41.291689 -0.000000 52.228917
LeftHand 3.315928 -0.000000 3.949292
LeftHandThumb1 -26.253704 0.000000 33.147579
Head -43.520559 -3.913270 10.672409
371
root 2.796565 32.086218 -7.004721 66.006390 -28.127631 11.509648
RightUpLeg -80.647350 -16.074235 -25.471132
RightLeg 2.843550 -0.000000 -0.000000
RightFoot 1.427002 -1.308823 13.023283
RightToeBase 6.404708 -0.000000 -0.000000
LeftUpLeg -66.616499 12.172770 -16.760045
LeftLeg -2.422324 -0.000000 0.000000
LeftFoot -1.397540 7.698385 -27.852442
LeftToeBase 7.923301 -0.000000 -0.000000
Spine 23.168801 -9.156946 18.910869
RightShoulder -3.025722 9.014054 -24.687402
RightArm 49.618904 10.106713 46.240905
RightForeArm -18.092765 -0.000000 41.083801
RightHand 13.949349 -0.000000 -3.901662
RightHandThumb1 -24.326973 -0.000000 -32.862282
LeftShoulder -7.990351 -20.618841 42.467787
LeftArm 70.917340 1.378893 -37.999869
LeftForeArm 41.416870 -0.000000 51.789086
LeftHand 3.357564 -0.000000 3.998968
LeftHandThumb1 -26.253704 0.000000 33.147579
Head -43.842893 -3.760164 10.654795
372
root 2.807961 32.079308 -7.004073 66.498434 -28.474352 11.520010
RightUpLeg -81.303847 -16.218887 -25.533092
RightLeg 2.941214 -0.000000 -0.000000
RightFoot 1.484148 -1.240568 13.003324
RightToeBase 6.405402 -0.000000 -0.000000
LeftUpLeg -67.028831 12.104289 -17.054897
LeftLeg -2.489657 -0.000000 0.000000
LeftFoot -1.547560 7.758093 -27.862440
LeftToeBase 7.956533 -0.000000 -0.000000
Spine 23.426729 -9.113096 18.757034
RightShoulder -2.917905 9.327003 -24.766609
RightArm 49.726827 10.032040 46.174965
RightForeArm -17.992452 -0.000000 41.265240
RightHand 13.956583 -0.000000 -3.640009
RightHandThumb1 -24.326973 -0.000000 -32.862282
LeftShoulder -7.821331 -21.068996 42.533498
LeftArm 70.975335 1.583909 -37.910053
LeftForeArm 41.407163 -0.000000 51.305123
LeftHand 3.487671 -0.000000 3.836997
LeftHandThumb1 -26.253704 0.000000 33.147579
Head -44.184165 -3.634131 10.660590
373
root 2.820129 32.072460 -6.999699 67.008825 -28.794002 11.555074
RightUpLeg -81.917812 -16.410388 -25.587442
RightLeg 2.950556 -0.000000 -0.000000
RightFoot 1.554754 -1.174861 13.037814
RightToeBase 6.453307 -0.000000 -0.000000
LeftUpLeg -67.461612 11.973668 -17.292344
LeftLeg -2.525265 -0.000000 0.000000
LeftFoot -1.731081 7.858906 -27.850512
LeftToeBase 8.005574 -0.000000 -0.000000
Spine 23.631376 -9.137998 18.666216
RightShoulder -2.820302 9.818362 -24.971919
RightArm 49.710477 9.859448 46.288336
RightForeArm -18.042902 -0.000000 41.499271
RightHand 13.951821 -0.000000 -3.702491
RightHandThumb1 -24.326973 -0.000000 -32.862282
LeftShoulder -7.694228 -21.616694 42.571445
LeftArm 70.909476 1.899245 -37.787141
LeftForeArm 41.532307 -0.000000 50.904791
LeftHand 3.506935 0.000000 3.797515
LeftHandThumb1 -26.253704 0.000000 33.147579
Head -44.567999 -3.385950 10.536780
